<svg width="23" height="20" viewBox="0 0 23 20" fill="none" xmlns="http://www.w3.org/2000/svg">
<g clip-path="url(#clip0)">
<path d="M0.367599 8.67355L8.6737 0.367249C8.9108 0.130145 9.2269 0 9.5638 0C9.9011 0 10.217 0.130332 10.4541 0.367249L11.2082 1.12157C11.4451 1.3583 11.5756 1.6745 11.5756 2.01164C11.5756 2.3486 11.4451 2.67546 11.2082 2.91219L6.3625 7.76851H21.7574C22.4516 7.76851 23 8.31191 23 9.0062V10.0726C23 10.7669 22.4516 11.3651 21.7574 11.3651H6.3076L11.208 16.2485C11.4449 16.4856 11.5755 16.7932 11.5755 17.1304C11.5755 17.4671 11.4449 17.7792 11.208 18.0161L10.4539 18.768C10.2168 19.0051 9.901 19.1343 9.5636 19.1343C9.2267 19.1343 8.9107 19.0035 8.6736 18.7663L0.367399 10.4602C0.129799 10.2224 -0.0009 9.90488 0 9.56736C-0.0007 9.22872 0.129799 8.91102 0.367599 8.67355Z" fill="#3C5AA9"/>
</g>
<defs>
<clipPath id="clip0">
<rect width="23" height="20" fill="white" transform="matrix(-1 0 0 1 23 0)"/>
</clipPath>
</defs>
</svg>
