<svg width="161" height="103" viewBox="0 0 161 103" fill="none" xmlns="http://www.w3.org/2000/svg">
<g clip-path="url(#clip0)">
<path d="M19.4595 33.8651H33.9817V42.0257H19.4595V47.366H36.7294V56.0843H8.25391V19.903H36.7294V28.632H19.4595V33.8651Z" fill="white"/>
<path d="M76.679 19.903V56.0843H66.654L53.4735 40.1384L51.7776 38.0687V56.0843H40.572V19.903H51.2088L63.756 35.7846L65.4734 37.9615V19.903H76.679Z" fill="white"/>
<path d="M92.0061 33.8651H106.539V42.0257H92.0061V47.366H109.276V56.0843H80.8005V19.903H109.276V28.632H92.0061V33.8651Z" fill="white"/>
<path d="M159.733 56.0843H148.968L148.292 43.7736L148.109 40.4922L146.499 43.3554L139.308 56.0843H133.029L125.848 43.3554L124.238 40.4922L124.045 43.7736L123.369 56.0843H112.603L114.149 19.903H123.627L135.347 39.0017L136.174 40.3314L136.99 39.0017L148.71 19.903H158.188L159.733 56.0843Z" fill="white"/>
<path d="M11.4524 11.7959H10.3791V14.82H7.72797V4.20365H8.65103H9.72437H10.7977H11.9247C12.5522 4.19784 13.1774 4.28088 13.7816 4.4503C14.2914 4.59073 14.7666 4.83539 15.1769 5.16878C15.5632 5.45483 15.8789 5.82529 16.1 6.25186C16.314 6.76452 16.4199 7.31573 16.4112 7.87112C16.4249 8.53579 16.258 9.19174 15.9282 9.76919C15.5985 10.315 15.1325 10.7658 14.5758 11.0775L17.1733 14.7771H14.0606L12.075 11.7959H11.4524ZM12.0213 9.544C12.4964 9.56877 12.9624 9.40716 13.32 9.09361C13.4838 8.94287 13.6128 8.75832 13.6981 8.55277C13.7834 8.34722 13.8228 8.1256 13.8138 7.90329C13.8305 7.68379 13.7932 7.46354 13.7053 7.2617C13.6174 7.05985 13.4815 6.88253 13.3093 6.74514C12.8977 6.47117 12.4076 6.33934 11.914 6.36982H10.3469V9.58689L12.0213 9.544Z" fill="white"/>
<path d="M25.6204 8.37512V10.6163H20.93V12.493H26.3181V14.7771H18.311V4.20364H26.3181V6.48777H20.93V8.37512H25.6204Z" fill="white"/>
<path d="M31.8029 14.7771L27.2949 4.20364H30.268L33.1016 11.3027L35.9567 4.20364H38.9083L34.4111 14.7771H31.8029Z" fill="white"/>
<path d="M42.7079 4.20364H40.0782V14.7771H42.7079V4.20364Z" fill="white"/>
<path d="M52.5933 7.03467C51.8527 6.80948 51.1551 6.6379 50.5218 6.50922C49.9844 6.40237 49.4383 6.34494 48.8903 6.33764C48.5205 6.32209 48.1524 6.39565 47.817 6.55211C47.6882 6.62042 47.582 6.72474 47.5115 6.85232C47.4409 6.9799 47.4091 7.12524 47.4199 7.27059C47.4167 7.3492 47.4293 7.42765 47.457 7.50132C47.4846 7.57498 47.5268 7.64238 47.5809 7.69953C47.7072 7.83411 47.8662 7.93384 48.0424 7.98907C48.2796 8.08265 48.5236 8.15794 48.7723 8.21426L49.7705 8.41801C50.2729 8.51996 50.7678 8.65611 51.2517 8.82551C51.6655 8.95983 52.0538 9.16285 52.4001 9.42603C52.7165 9.65733 52.9709 9.96305 53.1407 10.3161C53.3239 10.7235 53.4119 11.1672 53.3983 11.6136C53.4087 12.1219 53.2984 12.6254 53.0763 13.0828C52.8723 13.5081 52.5663 13.8764 52.1855 14.1551C51.7629 14.4517 51.2902 14.6697 50.7901 14.7985C50.197 14.9462 49.5875 15.0183 48.9762 15.013C48.2232 15.0056 47.4724 14.9303 46.7329 14.7878C45.8913 14.6328 45.0651 14.4031 44.2643 14.1015L44.8761 11.7959C45.6225 12.0818 46.3906 12.3077 47.173 12.4715C47.7378 12.5964 48.3124 12.6717 48.8903 12.6967C50.0388 12.6967 50.6077 12.4179 50.6077 11.7959C50.6122 11.698 50.5953 11.6003 50.5583 11.5096C50.5212 11.4189 50.4648 11.3373 50.393 11.2705C50.2284 11.1272 50.0393 11.0146 49.8349 10.9381C49.5688 10.8434 49.2961 10.7681 49.0191 10.7129L48.0639 10.5198C47.5425 10.4098 47.0296 10.2629 46.529 10.0802C46.1405 9.93577 45.778 9.72934 45.4557 9.46892C45.1748 9.23475 44.9541 8.93695 44.8117 8.60031C44.6646 8.21747 44.5952 7.80918 44.6077 7.39927C44.5993 6.91768 44.7021 6.44062 44.9083 6.00521C45.1084 5.58364 45.4065 5.21598 45.7777 4.93285C46.1805 4.63605 46.6356 4.41776 47.1193 4.28943C47.7036 4.13198 48.3068 4.05619 48.9118 4.06424C49.2703 4.0636 49.6285 4.0815 49.9851 4.11786C50.3715 4.11786 50.7579 4.20365 51.1229 4.26799C51.4878 4.33233 51.8635 4.41812 52.1962 4.50391L53.13 4.772L52.5933 7.03467Z" fill="white"/>
<path d="M56.7901 14.7771H53.9243L58.6362 4.13931H61.0834L65.7846 14.7771H62.9403L62.2533 13.0399H57.4985L56.7901 14.7771ZM58.4001 10.8201H61.3195L59.8491 7.28132L58.4001 10.8201Z" fill="white"/>
<g opacity="0.2">
<path opacity="0.2" d="M79.3193 73.3386C87.5175 73.3386 94.1635 66.6986 94.1635 58.5079C94.1635 50.3171 87.5175 43.6772 79.3193 43.6772C71.1211 43.6772 64.4751 50.3171 64.4751 58.5079C64.4751 66.6986 71.1211 73.3386 79.3193 73.3386Z" fill="#95979A"/>
</g>
<path d="M79.2871 66.7436C77.6945 66.7436 76.1377 66.2716 74.8137 65.3874C73.4896 64.5032 72.4578 63.2464 71.8489 61.7762C71.2399 60.306 71.0811 58.6883 71.3926 57.1279C71.7041 55.5675 72.4718 54.1344 73.5987 53.0101C74.7256 51.8857 76.161 51.1206 77.7232 50.8114C79.2855 50.5023 80.9044 50.6631 82.3752 51.2735C83.8459 51.8839 85.1024 52.9164 85.9857 54.2404C86.8689 55.5644 87.3392 57.1205 87.3371 58.7116C87.3343 60.8428 86.4849 62.8857 84.9755 64.3917C83.4662 65.8977 81.4203 66.7436 79.2871 66.7436ZM79.2871 51.9021C77.9387 51.9 76.6199 52.2976 75.4976 53.0445C74.3754 53.7915 73.5001 54.8542 72.9826 56.0983C72.4651 57.3424 72.3286 58.7119 72.5904 60.0335C72.8521 61.3551 73.5004 62.5694 74.4532 63.5228C75.4059 64.4762 76.6204 65.1258 77.9428 65.3894C79.2652 65.6531 80.6361 65.5188 81.8821 65.0038C83.1282 64.4887 84.1933 63.6159 84.9427 62.4959C85.692 61.3758 86.092 60.0589 86.092 58.7116C86.0892 56.9084 85.3717 55.1796 84.0965 53.9035C82.8212 52.6274 81.092 51.9078 79.2871 51.9021Z" fill="#002A6D"/>
<path d="M79.2871 71.5263C76.7397 71.5263 74.2495 70.7716 72.1314 69.3576C70.0133 67.9436 68.3624 65.9339 67.3875 63.5825C66.4127 61.2311 66.1576 58.6437 66.6546 56.1475C67.1516 53.6513 68.3783 51.3584 70.1796 49.5587C71.9809 47.7591 74.2759 46.5335 76.7743 46.037C79.2728 45.5404 81.8626 45.7953 84.2161 46.7693C86.5696 47.7432 88.5812 49.3926 89.9964 51.5088C91.4117 53.6249 92.1671 56.1129 92.1671 58.658C92.1671 62.0709 90.8101 65.344 88.3946 67.7573C85.9792 70.1705 82.7031 71.5263 79.2871 71.5263V71.5263ZM79.2871 47.1194C76.9923 47.1194 74.749 47.7993 72.841 49.0731C70.9329 50.3468 69.4458 52.1573 68.5676 54.2755C67.6894 56.3937 67.4596 58.7245 67.9073 60.9732C68.355 63.2218 69.4601 65.2873 71.0827 66.9085C72.7054 68.5297 74.7728 69.6338 77.0235 70.0811C79.2742 70.5284 81.6072 70.2988 83.7273 69.4214C85.8474 68.544 87.6595 67.0582 88.9344 65.1519C90.2094 63.2456 90.8898 61.0043 90.8898 58.7116C90.887 55.6381 89.6637 52.6912 87.4883 50.5178C85.313 48.3445 82.3635 47.1223 79.2871 47.1194" fill="#002A6D"/>
<g opacity="0.3">
<path opacity="0.3" d="M90.4927 76.7058C90.2818 76.1606 89.9357 75.6779 89.4871 75.3027C89.0384 74.9276 88.5018 74.6724 87.9274 74.5611C87.7078 74.5196 87.4854 74.4945 87.262 74.486H86.9292H86.618V74.1858C86.7213 73.633 86.6956 73.0639 86.543 72.5227C86.3903 71.9815 86.1148 71.4827 85.7378 71.0652C85.3496 70.6441 84.8704 70.3171 84.3366 70.109C83.8027 69.9009 83.2285 69.8171 82.6574 69.8642H82.3569V69.5639C82.4039 69.0667 82.3496 68.5652 82.1974 68.0895C82.0452 67.6138 81.7982 67.1739 81.4713 66.7961C81.1443 66.4184 80.7442 66.1107 80.2951 65.8915C79.8459 65.6724 79.357 65.5464 78.8578 65.5211L78.4821 65.4139L78.7397 64.9742L78.8041 64.8563L82.3998 59.4087C82.9599 58.5825 83.1791 57.5721 83.0116 56.5884C82.8881 55.9018 82.5679 55.2658 82.0896 54.7575C81.6114 54.2493 80.9958 53.8906 80.3175 53.7252C79.5923 53.5593 78.834 53.6135 78.1398 53.881C77.4456 54.1485 76.8472 54.617 76.4213 55.2265L69.0797 66.3897L65.0977 72.4056L64.9474 71.5478V71.344C64.9474 70.9901 64.8508 70.6577 64.8186 70.2717C64.7327 69.5425 64.6361 68.7918 64.4966 68.1269C64.2865 67.1735 63.7572 66.3203 62.9961 65.7081C62.235 65.0958 61.2877 64.7613 60.3106 64.7597C59.7127 64.7548 59.1206 64.8779 58.5743 65.1208C58.028 65.3637 57.5401 65.7206 57.1434 66.1677C56.7468 66.6148 56.4507 67.1416 56.2749 67.7126C56.0992 68.2836 56.0479 68.8856 56.1246 69.4781C56.189 69.95 56.2856 70.4325 56.3607 70.9044C56.4359 71.3762 56.4681 71.5585 56.5217 71.8802L56.8867 74.0893C57.2087 76.0624 57.5128 78.0391 57.799 80.0194C58.0244 81.5421 58.2069 83.1829 58.3571 85.0166C58.4065 86.158 58.7236 87.2719 59.2829 88.2685C59.8422 89.265 60.6281 90.1163 61.5771 90.7537C62.5753 91.44 63.5628 92.0834 64.5717 92.7376C65.2694 93.1772 65.9563 93.6276 66.6218 94.0887C68.5892 95.599 70.9993 96.4205 73.4804 96.4265C75.1192 96.5713 76.7514 96.084 78.042 95.0646C79.2099 94.0545 80.3207 92.9805 81.3694 91.8475C83.2633 89.8805 85.0137 87.7804 86.6072 85.5635C87.906 83.7941 89.0866 81.9604 90.2995 80.073C90.6225 79.5751 90.817 79.0051 90.8657 78.4138C90.9144 77.8225 90.8158 77.2283 90.5786 76.6844L90.4927 76.7058ZM68.1674 93.2952L65.5485 91.5794C64.4751 90.8931 63.4018 90.1532 62.2533 89.4347C61.5738 88.9731 61.0094 88.3618 60.6038 87.6478C60.1981 86.9339 59.9619 86.1364 59.9135 85.3168C59.6773 82.4429 59.2695 79.6119 58.9367 77.4779C58.6791 75.7836 58.4001 74.0893 58.1317 72.3949L57.638 69.4031C57.5678 68.9538 57.616 68.494 57.7779 68.069C57.9398 67.644 58.2097 67.2685 58.5611 66.9795C59.0396 66.5694 59.6479 66.3415 60.2784 66.3361C60.5854 66.3327 60.8906 66.3836 61.18 66.4862C61.6739 66.6324 62.1118 66.9249 62.4357 67.3251C62.7596 67.7253 62.9543 68.2143 62.9939 68.7275L63.0798 69.2958C63.2873 70.9044 63.502 72.5129 63.7238 74.1214V74.4646C63.7487 74.6491 63.8301 74.8213 63.957 74.9577C64.0838 75.094 64.2498 75.1877 64.4322 75.226C64.5754 75.2577 64.7243 75.2527 64.8651 75.2114C65.0058 75.1702 65.1338 75.094 65.2372 74.99C65.2925 74.9337 65.3427 74.8727 65.3875 74.8077L77.5161 56.3953C77.756 55.9947 78.113 55.6772 78.539 55.4855C78.9651 55.2937 79.4397 55.237 79.8989 55.323C80.2054 55.3911 80.4915 55.5306 80.734 55.7299C80.9764 55.9293 81.1684 56.183 81.2942 56.4704C81.4369 56.755 81.5111 57.069 81.5111 57.3873C81.5111 57.7056 81.4369 58.0195 81.2942 58.3041C80.9722 58.8832 80.5966 59.4516 80.2209 59.9985L73.738 69.7033L72.45 71.6657C72.0099 72.3199 71.5806 72.974 71.1513 73.6281L70.8078 74.1536C70.7187 74.2511 70.6516 74.3666 70.611 74.4922C70.5704 74.6179 70.5573 74.7508 70.5726 74.8819C70.5878 75.0131 70.6311 75.1394 70.6995 75.2524C70.7678 75.3654 70.8597 75.4625 70.9688 75.5369C71.0624 75.5994 71.1679 75.6421 71.2786 75.6623C71.3893 75.6826 71.5031 75.6801 71.6128 75.6549C71.9115 75.5793 72.1692 75.3909 72.3319 75.1294C73.4053 73.4458 74.4786 71.7622 75.627 70.0894L76.8721 68.2127C77.1043 67.8074 77.4586 67.4856 77.8845 67.293C78.3103 67.1005 78.7862 67.0471 79.2442 67.1404C79.5674 67.2145 79.8676 67.3666 80.1183 67.5835C80.369 67.8003 80.5627 68.0753 80.6824 68.3843C80.8131 68.716 80.859 69.075 80.8159 69.4289C80.7728 69.7828 80.6421 70.1204 80.4356 70.4111L78.5358 73.2957L76.5179 76.3627C76.2496 76.7487 75.992 77.1455 75.7451 77.5315C75.665 77.6394 75.6092 77.7632 75.5814 77.8946C75.5536 78.026 75.5545 78.1619 75.5841 78.2929C75.6094 78.4081 75.6574 78.5171 75.7253 78.6136C75.7931 78.7101 75.8795 78.7921 75.9794 78.855C76.0792 78.9178 76.1906 78.9602 76.307 78.9797C76.4234 78.9992 76.5425 78.9954 76.6574 78.9685C76.8966 78.9073 77.1037 78.7578 77.237 78.5503L78.89 76.0517L81.2298 72.5022C81.4231 72.1857 81.692 71.9221 82.0123 71.7349C82.3326 71.5478 82.6944 71.4429 83.0652 71.4298C83.4333 71.4022 83.8015 71.4817 84.1253 71.6586C84.4491 71.8356 84.7147 72.1025 84.8899 72.4271C85.0921 72.7721 85.1905 73.1679 85.1733 73.5673C85.1562 73.9667 85.0243 74.3526 84.7933 74.6791C84.0849 75.7514 83.355 76.8881 82.6466 77.9926L80.7683 80.8451C80.6693 80.9815 80.6082 81.1417 80.5913 81.3093C80.5743 81.4769 80.6021 81.6461 80.6717 81.7995C80.7344 81.9348 80.8322 82.0508 80.9548 82.1356C81.0775 82.2205 81.2206 82.271 81.3694 82.2821C81.5401 82.3008 81.7127 82.2703 81.8667 82.1943C82.0207 82.1183 82.1498 81.9999 82.2388 81.8531L83.1189 80.4269L85.2656 77.2098C85.4946 76.7676 85.8704 76.4187 86.3287 76.2231C86.7869 76.0274 87.299 75.9971 87.7772 76.1375C88.0803 76.226 88.3576 76.3863 88.5856 76.6047C88.8135 76.8231 88.9854 77.0932 89.0866 77.3921C89.1752 77.629 89.2224 77.8792 89.2262 78.132C89.2125 78.5127 89.0977 78.8828 88.8934 79.2044C87.541 81.3491 86.457 82.9577 85.3944 84.4268C84.3318 85.8959 83.0223 87.4508 81.8524 88.8449C80.373 90.6188 78.7543 92.2719 77.0116 93.7885C76.2962 94.3506 75.4292 94.6867 74.5215 94.7536C74.2142 94.7743 73.9058 94.7743 73.5985 94.7536H73.3087C71.491 94.7655 69.7076 94.2596 68.1674 93.2952" fill="#95979A"/>
<path opacity="0.3" d="M89.2476 78.132C89.234 78.5127 89.1191 78.8828 88.9149 79.2044C87.5625 81.3491 86.4784 82.9576 85.4158 84.4268C84.3532 85.8959 83.0438 87.4508 81.8738 88.8449C80.3944 90.6188 78.7757 92.2719 77.0331 93.7885C76.3177 94.3506 75.4506 94.6867 74.5429 94.7536C74.2356 94.7743 73.9272 94.7743 73.6199 94.7536H73.3301C71.5051 94.7696 69.7137 94.2635 68.1673 93.2952L65.5484 91.5794C64.4751 90.8931 63.4018 90.1532 62.2533 89.4347C61.5738 88.9731 61.0094 88.3617 60.6037 87.6478C60.198 86.9339 59.9619 86.1364 59.9134 85.3168C59.6773 82.4429 59.2694 79.6119 58.9367 77.4779C58.6791 75.7836 58.4 74.0892 58.1317 72.3949L57.638 69.403C57.5678 68.9538 57.616 68.494 57.7779 68.069C57.9397 67.644 58.2096 67.2685 58.561 66.9795C59.0424 66.567 59.6549 66.3389 60.2891 66.3361C60.9515 66.3483 61.5876 66.5974 62.0819 67.0381C62.5762 67.4788 62.896 68.082 62.9832 68.7382L63.0583 69.3065C63.273 70.9151 63.4876 72.5236 63.713 74.1321V74.4753C63.7379 74.6598 63.8193 74.832 63.9462 74.9684C64.0731 75.1047 64.2391 75.1984 64.4214 75.2367C64.5646 75.2684 64.7135 75.2634 64.8543 75.2221C64.995 75.1809 65.1231 75.1047 65.2264 75.0007C65.2817 74.9444 65.332 74.8834 65.3767 74.8184L77.5054 56.4061C77.7452 56.0055 78.1022 55.6879 78.5283 55.4962C78.9543 55.3045 79.4289 55.2477 79.8882 55.3337C80.1947 55.4018 80.4808 55.5413 80.7232 55.7406C80.9657 55.94 81.1576 56.1937 81.2835 56.4811C81.4261 56.7658 81.5004 57.0797 81.5004 57.398C81.5004 57.7163 81.4261 58.0302 81.2835 58.3149C80.9615 58.8939 80.5858 59.4623 80.2102 60.0092L73.7379 69.7033L72.45 71.6657C72.0099 72.3199 71.5806 72.974 71.1512 73.6281L70.8078 74.1536C70.7186 74.2511 70.6515 74.3666 70.6109 74.4922C70.5704 74.6179 70.5573 74.7508 70.5725 74.8819C70.5878 75.0131 70.6311 75.1394 70.6994 75.2524C70.7678 75.3654 70.8596 75.4625 70.9688 75.5369C71.0624 75.5994 71.1678 75.642 71.2786 75.6623C71.3893 75.6826 71.503 75.6801 71.6128 75.6549C71.7599 75.6188 71.8984 75.5538 72.02 75.4636C72.1417 75.3733 72.244 75.2597 72.3211 75.1294C73.4159 73.4494 74.5179 71.7694 75.627 70.0893L76.8721 68.2127C77.1043 67.8074 77.4586 67.4856 77.8844 67.293C78.3103 67.1005 78.7861 67.0471 79.2442 67.1404C79.5674 67.2144 79.8675 67.3666 80.1183 67.5834C80.369 67.8003 80.5627 68.0753 80.6824 68.3843C80.8131 68.716 80.859 69.075 80.8159 69.4289C80.7728 69.7828 80.6421 70.1203 80.4356 70.4111L78.5358 73.2957L76.5179 76.3626C76.2496 76.7487 75.992 77.1455 75.7344 77.5315C75.6579 77.6411 75.6051 77.7654 75.5793 77.8964C75.5534 78.0275 75.555 78.1625 75.5841 78.2929C75.6048 78.4053 75.649 78.512 75.7137 78.6062C75.7784 78.7005 75.8623 78.78 75.9597 78.8398C76.0572 78.9073 76.1677 78.9536 76.2842 78.9758C76.4007 78.9979 76.5205 78.9954 76.636 78.9685C76.8751 78.9073 77.0822 78.7578 77.2156 78.5502L78.8685 76.0517L81.2084 72.5022C81.4016 72.1857 81.6705 71.9221 81.9908 71.7349C82.3111 71.5478 82.6729 71.4429 83.0438 71.4298C83.4118 71.4022 83.78 71.4816 84.1038 71.6586C84.4276 71.8356 84.6932 72.1025 84.8684 72.4271C85.0737 72.77 85.1758 73.1648 85.1624 73.5641C85.1491 73.9635 85.0209 74.3505 84.7933 74.679C84.0849 75.7514 83.355 76.8881 82.6466 77.9926L80.7683 80.8451C80.6693 80.9815 80.6082 81.1417 80.5913 81.3093C80.5743 81.4769 80.602 81.646 80.6717 81.7995C80.7344 81.9347 80.8321 82.0508 80.9548 82.1356C81.0775 82.2205 81.2206 82.271 81.3694 82.2821C81.5404 82.3035 81.7139 82.2742 81.8685 82.198C82.0231 82.1217 82.1518 82.0018 82.2388 81.8531L83.1189 80.4269C83.838 79.3545 84.5464 78.2822 85.2656 77.2098C85.4945 76.7676 85.8704 76.4187 86.3286 76.2231C86.7869 76.0274 87.299 75.9971 87.7772 76.1374C88.0803 76.226 88.3576 76.3863 88.5856 76.6047C88.8135 76.8231 88.9854 77.0932 89.0866 77.3921C89.1752 77.6289 89.2224 77.8792 89.2262 78.132" fill="#95979A"/>
</g>
<path d="M90.4927 78.3572C90.2784 77.8142 89.9313 77.3334 89.4832 76.9588C89.0351 76.5842 88.5003 76.3276 87.9275 76.2125C87.707 76.1763 87.4849 76.1513 87.262 76.1375H86.94H86.6287V75.8265C86.732 75.2754 86.7062 74.708 86.5536 74.1685C86.4009 73.629 86.1254 73.1321 85.7486 72.7166C85.3614 72.2936 84.8826 71.9646 84.3487 71.7546C83.8149 71.5446 83.24 71.4592 82.6681 71.5049H82.3676V71.1939C82.4131 70.6976 82.3577 70.1972 82.2048 69.7227C82.0519 69.2483 81.8046 68.8097 81.4778 68.4331C81.151 68.0565 80.7514 67.7498 80.3031 67.5313C79.8547 67.3129 79.3667 67.1872 78.8685 67.1618L78.4499 67.0975L78.7075 66.6578L78.7719 66.5291L82.3998 61.1245C82.9599 60.2983 83.1791 59.2879 83.0116 58.3041C82.8887 57.6162 82.5689 56.9785 82.0907 56.4684C81.6126 55.9583 80.9966 55.5977 80.3175 55.4302C79.5912 55.2684 78.8332 55.3257 78.1395 55.5949C77.4459 55.8641 76.8478 56.333 76.4213 56.9423L69.0797 68.0412L65.0977 74.0571L64.9474 73.1992C64.9474 73.1134 64.9474 73.0491 64.9474 72.9955C64.9474 72.6416 64.8508 72.3091 64.8186 71.9231C64.7327 71.2046 64.6361 70.454 64.4966 69.7784C64.1775 68.8083 63.5225 67.9838 62.6493 67.4531C61.7762 66.9224 60.7422 66.7203 59.7332 66.8832C58.7243 67.046 57.8066 67.5631 57.1451 68.3415C56.4836 69.1199 56.1218 70.1085 56.1246 71.1296C56.189 71.6014 56.2856 72.084 56.3607 72.5558C56.4359 73.0276 56.4681 73.2099 56.5217 73.5316L56.8867 75.73C57.2087 77.7031 57.5128 79.6798 57.799 81.6601C58.0244 83.1936 58.2069 84.8772 58.3571 86.668C58.4065 87.8095 58.7236 88.9234 59.2829 89.9199C59.8422 90.9165 60.6281 91.7677 61.5771 92.4051C62.5753 93.0807 63.5628 93.7349 64.5717 94.389C65.2694 94.8287 65.9563 95.2791 66.6218 95.7294C67.6507 96.5176 68.7946 97.1433 70.0135 97.5846C71.1144 97.8989 72.2501 98.0754 73.3945 98.1101C75.032 98.242 76.6596 97.7561 77.9562 96.7482C79.124 95.7381 80.2348 94.6641 81.2835 93.5311C83.1774 91.5641 84.9279 89.464 86.5214 87.2471C87.8201 85.4777 89.0008 83.6332 90.2137 81.7566C90.5366 81.2587 90.7312 80.6887 90.7799 80.0974C90.8286 79.5061 90.7299 78.9119 90.4927 78.368V78.3572ZM68.1674 94.9574L65.5485 93.2309C64.4751 92.5445 63.4018 91.7939 62.2533 91.0861C61.5724 90.6235 61.0072 90.0104 60.6014 89.2945C60.1957 88.5786 59.9603 87.7789 59.9135 86.9576C59.6773 84.0836 59.2695 81.2633 58.9367 79.1293C58.6791 77.4243 58.4001 75.7407 58.1317 74.0464L57.638 71.0545C57.5667 70.6052 57.6144 70.145 57.7764 69.7199C57.9383 69.2947 58.2088 68.9193 58.5611 68.631C59.0396 68.2208 59.6479 67.9929 60.2784 67.9875C60.5814 67.9904 60.8821 68.0411 61.1693 68.1377C61.6633 68.2871 62.1007 68.582 62.4243 68.9838C62.7479 69.3855 62.9427 69.8755 62.9832 70.3896L63.0691 70.958C63.273 72.5665 63.4877 74.1751 63.7131 75.7729V76.116C63.7374 76.3019 63.8184 76.4757 63.9452 76.6139C64.0719 76.752 64.2382 76.8478 64.4215 76.8881C64.5647 76.9198 64.7136 76.9148 64.8543 76.8736C64.9951 76.8323 65.1231 76.7562 65.2265 76.6522C65.2265 76.6522 65.3338 76.5342 65.3767 76.4699L77.5483 58.0146C77.7871 57.6129 78.1439 57.2945 78.5703 57.1026C78.9966 56.9107 79.4718 56.8547 79.9311 56.9423C80.2362 57.0101 80.5213 57.1482 80.7635 57.3455C81.0058 57.5429 81.1985 57.794 81.3265 58.079C81.4692 58.3655 81.5435 58.6811 81.5435 59.0012C81.5435 59.3212 81.4692 59.6369 81.3265 59.9234C81.0045 60.5025 80.6288 61.0708 80.2531 61.6177L73.8131 71.4298L72.5251 73.3922C72.0851 74.0464 71.6557 74.7005 71.2264 75.3546L70.8829 75.8801C70.7986 75.9718 70.7338 76.0796 70.6923 76.197C70.6508 76.3144 70.6336 76.439 70.6416 76.5633C70.6497 76.6875 70.6828 76.8089 70.739 76.92C70.7952 77.0311 70.8734 77.1297 70.9688 77.2098C71.0624 77.2723 71.1679 77.315 71.2786 77.3352C71.3893 77.3555 71.5031 77.353 71.6128 77.3278C71.9115 77.2521 72.1692 77.0638 72.3319 76.8023C73.4053 75.108 74.4786 73.4351 75.6271 71.7622L76.8721 69.8856C77.1079 69.4837 77.4627 69.1647 77.8875 68.9727C78.3124 68.7806 78.7863 68.7249 79.2442 68.8133C79.5678 68.8901 79.8679 69.0445 80.1184 69.2631C80.369 69.4817 80.5626 69.7579 80.6825 70.0679C80.8112 70.3982 80.8561 70.7552 80.813 71.107C80.7699 71.4588 80.6403 71.7945 80.4356 72.084C79.7987 73.0634 79.1655 74.0285 78.5358 74.9793L76.5179 78.0355C76.2496 78.4323 75.992 78.8291 75.7451 79.2151C75.665 79.323 75.6092 79.4468 75.5814 79.5782C75.5536 79.7096 75.5545 79.8455 75.5841 79.9765C75.6094 80.0917 75.6574 80.2007 75.7253 80.2972C75.7931 80.3937 75.8795 80.4757 75.9794 80.5386C76.0792 80.6014 76.1906 80.6438 76.307 80.6633C76.4234 80.6828 76.5425 80.679 76.6575 80.6521C76.8993 80.5903 77.1074 80.4363 77.2371 80.2231C77.7952 79.3974 78.3104 78.561 78.89 77.7353L81.2299 74.175C81.4266 73.8618 81.6963 73.6006 82.0159 73.4139C82.3355 73.2272 82.6955 73.1204 83.0653 73.1027C83.4338 73.0801 83.8012 73.1629 84.1244 73.3414C84.4476 73.5199 84.7131 73.7868 84.8899 74.1107C85.0858 74.45 85.1807 74.838 85.1636 75.2293C85.1465 75.6206 85.0181 75.9989 84.7933 76.3198C84.0849 77.3921 83.3551 78.5395 82.6467 79.6441L80.7683 82.4965C80.6693 82.633 80.6083 82.7931 80.5913 82.9607C80.5743 83.1284 80.6021 83.2975 80.6717 83.4509C80.7362 83.5849 80.8344 83.6998 80.9567 83.7843C81.079 83.8689 81.2212 83.9203 81.3694 83.9335C81.5401 83.9522 81.7127 83.9217 81.8667 83.8457C82.0207 83.7697 82.1498 83.6514 82.2388 83.5046L83.1511 82.1212L85.2978 78.9041C85.5268 78.4619 85.9026 78.1131 86.3609 77.9174C86.8191 77.7218 87.3312 77.6915 87.8094 77.8318C88.1005 77.9235 88.3668 78.0802 88.5882 78.2902C88.8095 78.5002 88.98 78.7578 89.0867 79.0436C89.1752 79.2804 89.2224 79.5307 89.2262 79.7835C89.2125 80.1641 89.0977 80.5342 88.8935 80.8558C87.5411 83.0006 86.457 84.6198 85.3944 86.0889C84.3318 87.5581 83.0223 89.113 81.8524 90.5071C80.3702 92.2784 78.7517 93.9313 77.0117 95.4506C76.2963 96.0128 75.4292 96.3488 74.5215 96.4158C74.2142 96.4365 73.9058 96.4365 73.5985 96.4158H73.3087C71.4728 96.3912 69.6819 95.8444 68.1459 94.8394" fill="#B2D6ED"/>
<path d="M89.2477 79.7835C89.234 80.1641 89.1192 80.5342 88.9149 80.8558C87.5625 83.0005 86.4785 84.6198 85.4159 86.0889C84.3533 87.5581 83.0438 89.113 81.8739 90.507C80.3917 92.2784 78.7732 93.9313 77.0331 95.4506C76.3177 96.0128 75.4507 96.3488 74.543 96.4157C74.2357 96.4365 73.9273 96.4365 73.6199 96.4157H73.3301C71.4943 96.3912 69.7034 95.8443 68.1674 94.8394L65.5485 93.1129C64.4751 92.4266 63.4018 91.6759 62.2533 90.9682C61.5724 90.5055 61.0072 89.8924 60.6015 89.1765C60.1957 88.4606 59.9603 87.661 59.9135 86.8396C59.6773 83.9657 59.2695 81.1454 58.9367 79.0114C58.6791 77.3063 58.4001 75.6227 58.1317 73.9284L57.638 70.9365C57.5887 70.5059 57.6472 70.0698 57.8083 69.6674C57.9695 69.2649 58.2281 68.9088 58.5611 68.6309C59.0424 68.2184 59.6549 67.9904 60.2891 67.9875C60.5886 67.9904 60.8858 68.0411 61.1693 68.1377C61.6633 68.2871 62.1007 68.582 62.4243 68.9838C62.7479 69.3855 62.9427 69.8755 62.9832 70.3896L63.0583 70.958C63.273 72.5665 63.4877 74.175 63.7131 75.7728V76.116C63.7359 76.3024 63.8164 76.4771 63.9434 76.6155C64.0704 76.7539 64.2376 76.8492 64.4215 76.8881C64.5655 76.9206 64.7156 76.9149 64.8568 76.8717C64.998 76.8284 65.1254 76.749 65.2265 76.6415C65.2818 76.5891 65.3321 76.5316 65.3767 76.4699L77.5483 58.0146C77.7871 57.6129 78.1439 57.2944 78.5703 57.1026C78.9966 56.9107 79.4718 56.8547 79.9311 56.9422C80.2362 57.0101 80.5213 57.1482 80.7635 57.3455C81.0058 57.5429 81.1985 57.794 81.3265 58.0789C81.4692 58.3654 81.5435 58.6811 81.5435 59.0012C81.5435 59.3212 81.4692 59.6369 81.3265 59.9234C81.0045 60.5025 80.6288 61.0708 80.2531 61.6177L73.8131 71.4298C73.3838 72.0732 72.9545 72.7273 72.5251 73.3922C72.0851 74.0464 71.6557 74.7005 71.2264 75.3546L70.8829 75.8801C70.7986 75.9718 70.7338 76.0796 70.6923 76.197C70.6509 76.3144 70.6336 76.439 70.6416 76.5633C70.6497 76.6875 70.6828 76.8089 70.739 76.92C70.7952 77.0311 70.8734 77.1297 70.9688 77.2098C71.0624 77.2723 71.1679 77.3149 71.2786 77.3352C71.3894 77.3555 71.5031 77.353 71.6128 77.3278C71.76 77.2917 71.8984 77.2267 72.0201 77.1364C72.1417 77.0462 72.2441 76.9326 72.3212 76.8023C73.3945 75.108 74.5215 73.4351 75.6271 71.7622L76.8721 69.8856C77.1079 69.4837 77.4627 69.1647 77.8875 68.9726C78.3124 68.7806 78.7864 68.7249 79.2442 68.8132C79.5678 68.8901 79.8679 69.0445 80.1185 69.2631C80.369 69.4817 80.5626 69.7579 80.6825 70.0679C80.8113 70.3981 80.8561 70.7551 80.813 71.107C80.77 71.4588 80.6403 71.7944 80.4356 72.0839C79.7988 73.0634 79.1655 74.0285 78.5358 74.9793L76.5179 78.0355L75.7344 79.2151C75.658 79.3247 75.6052 79.449 75.5793 79.5801C75.5534 79.7111 75.5551 79.8461 75.5841 79.9765C75.6095 80.0917 75.6575 80.2007 75.7253 80.2972C75.7932 80.3936 75.8795 80.4757 75.9794 80.5386C76.0792 80.6014 76.1906 80.6438 76.307 80.6633C76.4234 80.6828 76.5426 80.679 76.6575 80.6521C76.8994 80.5903 77.1074 80.4363 77.2371 80.2231C77.7952 79.3974 78.3104 78.561 78.89 77.7353L81.2299 74.175C81.4267 73.8617 81.6963 73.6006 82.0159 73.4139C82.3355 73.2272 82.6955 73.1204 83.0653 73.1027C83.4339 73.0801 83.8013 73.1629 84.1244 73.3414C84.4476 73.5199 84.7131 73.7868 84.8899 74.1107C85.0858 74.45 85.1807 74.838 85.1636 75.2293C85.1465 75.6206 85.0181 75.9988 84.7933 76.3197C84.0849 77.3921 83.3551 78.5395 82.6467 79.6441L80.7683 82.4965C80.6693 82.6329 80.6083 82.7931 80.5913 82.9607C80.5743 83.1284 80.6021 83.2975 80.6717 83.4509C80.7362 83.5848 80.8344 83.6997 80.9567 83.7843C81.079 83.8689 81.2212 83.9203 81.3694 83.9335C81.5402 83.9522 81.7127 83.9217 81.8667 83.8457C82.0208 83.7697 82.1498 83.6514 82.2388 83.5046L83.1511 82.1212C83.8703 81.0488 84.5787 79.9765 85.2978 78.9041C85.5268 78.4619 85.9026 78.1131 86.3609 77.9174C86.8191 77.7217 87.3313 77.6915 87.8094 77.8318C88.099 77.923 88.3643 78.0784 88.5855 78.2864C88.8066 78.4943 88.978 78.7495 89.0867 79.0328C89.1744 79.2736 89.2216 79.5273 89.2262 79.7835" fill="white"/>
</g>
<defs>
<clipPath id="clip0">
<rect width="161" height="103" fill="white"/>
</clipPath>
</defs>
</svg>
