<svg id="Layer_1" data-name="Layer 1" xmlns="http://www.w3.org/2000/svg" xmlns:xlink="http://www.w3.org/1999/xlink" viewBox="0 0 150 96.05"><defs><style>.cls-1{fill:none;}.cls-2{fill:#002a6d;}.cls-3{clip-path:url(#clip-path);}.cls-4{fill:#b60823;}.cls-5{clip-path:url(#clip-path-2);}.cls-6{clip-path:url(#clip-path-3);}.cls-7{opacity:0.2;}.cls-8{fill:#95979a;}.cls-9{clip-path:url(#clip-path-4);}.cls-10{opacity:0.3;}.cls-11{fill:#b2d6ed;}.cls-12{fill:#fff;}</style><clipPath id="clip-path"><rect class="cls-1" x="-31.47" y="-28.79" width="225.03" height="137.57"/></clipPath><clipPath id="clip-path-2"><rect class="cls-1" x="6.73" y="3.78" width="146.68" height="89.65"/></clipPath><clipPath id="clip-path-3"><rect class="cls-1" x="39.99" y="28.44" width="60.91" height="67.62"/></clipPath><clipPath id="clip-path-4"><rect class="cls-1" x="-39.01" y="-26.43" width="225.52" height="137.88"/></clipPath></defs><title>LOGOREVISAENEM</title><polygon class="cls-2" points="18.13 31.58 31.66 31.58 31.66 39.19 18.13 39.19 18.13 44.17 34.22 44.17 34.22 52.3 7.69 52.3 7.69 18.56 34.22 18.56 34.22 26.7 18.13 26.7 18.13 31.58"/><polygon class="cls-2" points="71.44 18.56 71.44 52.3 62.1 52.3 49.82 37.43 48.24 35.5 48.24 52.3 37.8 52.3 37.8 18.56 47.71 18.56 59.4 33.37 61 35.4 61 18.56 71.44 18.56"/><polygon class="cls-2" points="85.72 31.58 99.26 31.58 99.26 39.19 85.72 39.19 85.72 44.17 101.81 44.17 101.81 52.3 75.28 52.3 75.28 18.56 101.81 18.56 101.81 26.7 85.72 26.7 85.72 31.58"/><polygon class="cls-2" points="148.82 52.3 138.79 52.3 138.16 40.82 137.99 37.76 136.49 40.43 129.79 52.3 123.94 52.3 117.25 40.43 115.75 37.76 115.57 40.82 114.94 52.3 104.91 52.3 106.35 18.56 115.18 18.56 126.1 36.37 126.87 37.61 127.63 36.37 138.55 18.56 147.38 18.56 148.82 52.3"/><g class="cls-3"><rect class="cls-1" x="-917.6" y="-68.49" width="997.24" height="469.8"/><path class="cls-4" d="M10.67,11h-1v2.82H7.2V3.92l.86,0,1,0,1,0h1.05a6.19,6.19,0,0,1,1.73.23,3.56,3.56,0,0,1,1.3.67A2.94,2.94,0,0,1,15,5.83a3.77,3.77,0,0,1,.29,1.51,3.43,3.43,0,0,1-.45,1.77,3.43,3.43,0,0,1-1.26,1.22L16,13.78h-2.9L11.25,11ZM11.2,8.9a1.7,1.7,0,0,0,1.21-.42,1.43,1.43,0,0,0,.46-1.11,1.26,1.26,0,0,0-.47-1.08,2.11,2.11,0,0,0-1.3-.35H9.64v3Z"/><polygon class="cls-4" points="23.87 7.81 23.87 9.9 19.5 9.9 19.5 11.65 24.52 11.65 24.52 13.78 17.06 13.78 17.06 3.92 24.52 3.92 24.52 6.05 19.5 6.05 19.5 7.81 23.87 7.81"/><polygon class="cls-4" points="29.63 13.78 25.43 3.92 28.2 3.92 30.84 10.54 33.5 3.92 36.25 3.92 32.06 13.78 29.63 13.78"/></g><rect class="cls-4" x="37.34" y="3.92" width="2.45" height="9.86"/><g class="cls-5"><path class="cls-4" d="M49,6.56c-.69-.21-1.34-.37-1.93-.49a8.36,8.36,0,0,0-1.52-.16,2.15,2.15,0,0,0-1,.2.7.7,0,0,0-.37.67.55.55,0,0,0,.15.4,1,1,0,0,0,.43.27,4.65,4.65,0,0,0,.68.21l.93.19a10.48,10.48,0,0,1,1.38.38,3.61,3.61,0,0,1,1.07.56,2.22,2.22,0,0,1,.69.83,2.75,2.75,0,0,1,.24,1.21,3,3,0,0,1-.3,1.37,2.67,2.67,0,0,1-.83,1,4,4,0,0,1-1.3.6,6.75,6.75,0,0,1-1.69.2,11.64,11.64,0,0,1-2.09-.21,13.42,13.42,0,0,1-2.3-.64L41.81,11a14,14,0,0,0,2.14.63,9.26,9.26,0,0,0,1.6.21c1.07,0,1.6-.26,1.6-.84a.63.63,0,0,0-.2-.49,1.7,1.7,0,0,0-.52-.31,5.45,5.45,0,0,0-.76-.21l-.89-.18a10.48,10.48,0,0,1-1.43-.41,3.57,3.57,0,0,1-1-.57,2.14,2.14,0,0,1-.6-.81,2.88,2.88,0,0,1-.19-1.12,2.92,2.92,0,0,1,.28-1.3,2.73,2.73,0,0,1,.81-1A3.71,3.71,0,0,1,43.9,4a6.1,6.1,0,0,1,1.67-.21,9.68,9.68,0,0,1,1,.05c.36,0,.72.08,1.06.14s.69.14,1,.22l.87.25Z"/></g><path class="cls-4" d="M52.91,13.78H50.24l4.39-9.92h2.28l4.38,9.92H58.64L58,12.16H53.57Zm1.5-3.69h2.72l-1.37-3.3Z"/><g class="cls-6"><g class="cls-7"><circle class="cls-8" cx="73.9" cy="54.56" r="13.83"/></g><g class="cls-9"><path class="cls-2" d="M73.87,62.24a7.5,7.5,0,1,1,7.5-7.49,7.5,7.5,0,0,1-7.5,7.49m0-13.84a6.35,6.35,0,1,0,6.34,6.35,6.36,6.36,0,0,0-6.34-6.35"/><path class="cls-2" d="M73.87,66.7a12,12,0,1,1,12-12,12,12,0,0,1-12,12m0-22.76A10.81,10.81,0,1,0,84.68,54.75,10.82,10.82,0,0,0,73.87,43.94"/><g class="cls-10"><path class="cls-8" d="M84.31,71.53a3.22,3.22,0,0,0-2.39-2,4.2,4.2,0,0,0-.62-.07l-.31,0-.29,0,0-.28a3.41,3.41,0,0,0-.82-2.91,3.51,3.51,0,0,0-2.87-1.12l-.28,0v-.28a3.45,3.45,0,0,0-3.26-3.77L73.12,61l.24-.41.06-.11,3.35-5.08a3.61,3.61,0,0,0,.57-2.63,3.36,3.36,0,0,0-2.51-2.67,3.48,3.48,0,0,0-3.63,1.4L64.36,61.91l-3.71,5.61-.14-.8,0-.19c0-.33-.09-.64-.12-1-.08-.68-.17-1.38-.3-2a4,4,0,0,0-3.9-3.14,3.9,3.9,0,0,0-3.9,4.4c.06.44.15.89.22,1.33s.1.61.15.91L53,69.09q.45,2.76.85,5.53c.21,1.42.38,2.95.52,4.66a6.8,6.8,0,0,0,3,5.35c.93.64,1.85,1.24,2.79,1.85.65.41,1.29.83,1.91,1.26a10.53,10.53,0,0,0,6.39,2.18,6,6,0,0,0,4.25-1.27,38.91,38.91,0,0,0,3.1-3,53.29,53.29,0,0,0,4.88-5.86c1.21-1.65,2.31-3.36,3.44-5.12a3.35,3.35,0,0,0,.26-3.16M63.51,87,61.07,85.4c-1-.64-2-1.33-3.07-2a5,5,0,0,1-2.18-3.84c-.22-2.68-.6-5.32-.91-7.31-.24-1.58-.5-3.16-.75-4.74l-.46-2.79a2.44,2.44,0,0,1,.86-2.26,2.49,2.49,0,0,1,1.6-.6A2.43,2.43,0,0,1,57,62a2.37,2.37,0,0,1,1.69,2.09l.08.53q.29,2.25.6,4.5l0,.32a.84.84,0,0,0,.66.71.81.81,0,0,0,.75-.22,1.27,1.27,0,0,0,.14-.17l11.3-17.17a2.13,2.13,0,0,1,2.22-1,1.86,1.86,0,0,1,1.3,1.07,1.91,1.91,0,0,1,0,1.71c-.3.54-.65,1.07-1,1.58L68.7,65l-1.2,1.83c-.41.61-.81,1.22-1.21,1.83l-.32.49a.86.86,0,0,0,.15,1.29.77.77,0,0,0,.6.11,1.11,1.11,0,0,0,.67-.49c1-1.57,2-3.14,3.07-4.7l1.16-1.75a2.07,2.07,0,0,1,2.21-1,1.89,1.89,0,0,1,1.34,1.16,2,2,0,0,1-.23,1.89l-1.77,2.69-1.88,2.86c-.25.36-.49.73-.72,1.09a.87.87,0,0,0-.15.71.83.83,0,0,0,1,.63.91.91,0,0,0,.54-.39l1.54-2.33,2.18-3.31a2.09,2.09,0,0,1,1.71-1,1.78,1.78,0,0,1,1.7.93A1.94,1.94,0,0,1,79,69.64c-.66,1-1.34,2.06-2,3.09l-1.75,2.66a.89.89,0,0,0-.09.89.78.78,0,0,0,.65.45.84.84,0,0,0,.81-.4L77.44,75l2-3a2,2,0,0,1,2.34-1A1.83,1.83,0,0,1,83,72.17a2.06,2.06,0,0,1,.13.69,2,2,0,0,1-.31,1c-1.26,2-2.27,3.5-3.26,4.87s-2.21,2.82-3.3,4.12a40.47,40.47,0,0,1-4.51,4.61,4.26,4.26,0,0,1-2.32.9,6.38,6.38,0,0,1-.86,0l-.27,0A8.91,8.91,0,0,1,63.51,87"/><path class="cls-8" d="M83.15,72.86a2,2,0,0,1-.31,1c-1.26,2-2.27,3.5-3.26,4.87s-2.21,2.82-3.3,4.12a40.47,40.47,0,0,1-4.51,4.61,4.26,4.26,0,0,1-2.32.9,6.38,6.38,0,0,1-.86,0l-.27,0A8.91,8.91,0,0,1,63.51,87L61.07,85.4c-1-.64-2-1.33-3.07-2a5,5,0,0,1-2.18-3.84c-.22-2.68-.6-5.32-.91-7.31-.24-1.58-.5-3.16-.75-4.74l-.46-2.79a2.44,2.44,0,0,1,.86-2.26,2.49,2.49,0,0,1,1.61-.6,2.58,2.58,0,0,1,2.51,2.24l.07.53c.2,1.5.4,3,.61,4.5l0,.32a.84.84,0,0,0,.66.71.81.81,0,0,0,.75-.22,1.27,1.27,0,0,0,.14-.17l11.3-17.17a2.13,2.13,0,0,1,2.22-1,1.86,1.86,0,0,1,1.3,1.07,1.91,1.91,0,0,1,0,1.71c-.3.54-.65,1.07-1,1.58L68.7,65l-1.2,1.83c-.41.61-.81,1.22-1.21,1.83l-.32.49a.86.86,0,0,0,.15,1.29.77.77,0,0,0,.6.11,1.06,1.06,0,0,0,.66-.49q1.53-2.35,3.08-4.7l1.16-1.75a2.07,2.07,0,0,1,2.21-1,1.89,1.89,0,0,1,1.34,1.16,2,2,0,0,1-.23,1.89l-1.77,2.69-1.88,2.86c-.25.36-.49.73-.73,1.09a.9.9,0,0,0-.14.71.76.76,0,0,0,.35.51.79.79,0,0,0,.63.12.91.91,0,0,0,.54-.39l1.54-2.33,2.18-3.31a2.09,2.09,0,0,1,1.71-1,1.78,1.78,0,0,1,1.7.93A1.94,1.94,0,0,1,79,69.64c-.66,1-1.34,2.06-2,3.09l-1.75,2.66a.89.89,0,0,0-.09.89.78.78,0,0,0,.65.45.82.82,0,0,0,.81-.4L77.44,75c.67-1,1.33-2,2-3a2,2,0,0,1,2.34-1A1.83,1.83,0,0,1,83,72.17a2.06,2.06,0,0,1,.13.69"/></g><path class="cls-11" d="M84.31,73.07a3.26,3.26,0,0,0-2.39-2A6.18,6.18,0,0,0,81.3,71L81,71l-.29,0,0-.29a3.39,3.39,0,0,0-.82-2.9,3.51,3.51,0,0,0-2.87-1.13l-.28,0v-.29a3.45,3.45,0,0,0-3.26-3.76l-.39-.06.24-.41.06-.12L76.77,57a3.61,3.61,0,0,0,.57-2.63,3.37,3.37,0,0,0-2.51-2.68,3.5,3.5,0,0,0-3.63,1.41L64.36,63.45l-3.71,5.61-.14-.8c0-.08,0-.14,0-.19,0-.33-.09-.64-.12-1-.08-.67-.17-1.37-.3-2a4,4,0,0,0-7.8,1.26c.06.44.15.89.22,1.33s.1.61.15.91L53,70.62q.45,2.76.85,5.53c.21,1.43.38,3,.52,4.67a6.8,6.8,0,0,0,3,5.35c.93.63,1.85,1.24,2.79,1.85.65.41,1.29.83,1.91,1.25A11.8,11.8,0,0,0,65.23,91a12.89,12.89,0,0,0,3.15.49,6.12,6.12,0,0,0,4.25-1.27,38.91,38.91,0,0,0,3.1-3,53.29,53.29,0,0,0,4.88-5.86c1.21-1.65,2.31-3.37,3.44-5.12a3.35,3.35,0,0,0,.26-3.16M63.51,88.55l-2.44-1.61c-1-.64-2-1.34-3.07-2a5,5,0,0,1-2.18-3.85c-.22-2.68-.6-5.31-.91-7.3-.24-1.59-.5-3.16-.75-4.74l-.46-2.79A2.43,2.43,0,0,1,54.56,64a2.49,2.49,0,0,1,1.6-.6,2.68,2.68,0,0,1,.83.14,2.39,2.39,0,0,1,1.69,2.1l.08.53c.19,1.5.39,3,.6,4.49l0,.32a.85.85,0,0,0,.66.72.81.81,0,0,0,.75-.22s.1-.11.14-.17L72.25,54.1a2.12,2.12,0,0,1,2.22-1,1.87,1.87,0,0,1,1.3,1.06,1.93,1.93,0,0,1,0,1.72c-.3.54-.65,1.07-1,1.58l-6,9.15-1.2,1.83c-.41.61-.81,1.22-1.21,1.83l-.32.49A.86.86,0,0,0,66.12,72a.77.77,0,0,0,.6.11,1.11,1.11,0,0,0,.67-.49c1-1.58,2-3.14,3.07-4.7l1.16-1.75a2.1,2.1,0,0,1,2.21-1,1.91,1.91,0,0,1,1.34,1.17,2,2,0,0,1-.23,1.88q-.89,1.37-1.77,2.7l-1.88,2.85c-.25.37-.49.74-.72,1.1a.87.87,0,0,0-.15.71.83.83,0,0,0,1,.63.89.89,0,0,0,.54-.4c.52-.77,1-1.55,1.54-2.32l2.18-3.32a2.14,2.14,0,0,1,1.71-1,1.81,1.81,0,0,1,1.7.94A1.92,1.92,0,0,1,79,71.17c-.66,1-1.34,2.07-2,3.1l-1.75,2.66a.89.89,0,0,0-.09.89.8.8,0,0,0,.65.45.84.84,0,0,0,.81-.4l.85-1.29,2-3a2,2,0,0,1,2.34-1A1.87,1.87,0,0,1,83,73.71a2.06,2.06,0,0,1,.13.69,2,2,0,0,1-.31,1c-1.26,2-2.27,3.51-3.26,4.88s-2.21,2.82-3.3,4.12a41.31,41.31,0,0,1-4.51,4.61,4.26,4.26,0,0,1-2.32.9,6.38,6.38,0,0,1-.86,0l-.27,0a9,9,0,0,1-4.81-1.47"/><path class="cls-12" d="M83.15,74.4a2,2,0,0,1-.31,1c-1.26,2-2.27,3.51-3.26,4.88s-2.21,2.82-3.3,4.12a41.31,41.31,0,0,1-4.51,4.61,4.26,4.26,0,0,1-2.32.9,6.38,6.38,0,0,1-.86,0l-.27,0a9,9,0,0,1-4.81-1.47l-2.44-1.61c-1-.64-2-1.34-3.07-2a5,5,0,0,1-2.18-3.85c-.22-2.68-.6-5.31-.91-7.3-.24-1.59-.5-3.16-.75-4.74l-.46-2.79A2.44,2.44,0,0,1,54.56,64a2.49,2.49,0,0,1,1.61-.6,2.62,2.62,0,0,1,.82.14,2.39,2.39,0,0,1,1.69,2.1l.07.53c.2,1.5.4,3,.61,4.49l0,.32a.84.84,0,0,0,.66.72.79.79,0,0,0,.75-.23,1.14,1.14,0,0,0,.14-.16L72.25,54.1a2.12,2.12,0,0,1,2.22-1,1.87,1.87,0,0,1,1.3,1.06,1.93,1.93,0,0,1,0,1.72c-.3.54-.65,1.07-1,1.58l-6,9.15q-.6.9-1.2,1.83c-.41.61-.81,1.22-1.21,1.83l-.32.49A.86.86,0,0,0,66.12,72a.77.77,0,0,0,.6.11,1.06,1.06,0,0,0,.66-.49c1-1.58,2.05-3.14,3.08-4.7l1.16-1.75a2.1,2.1,0,0,1,2.21-1,1.91,1.91,0,0,1,1.34,1.17,2,2,0,0,1-.23,1.88q-.89,1.37-1.77,2.7l-1.88,2.85-.73,1.1a.9.9,0,0,0-.14.71.83.83,0,0,0,1,.63.89.89,0,0,0,.54-.4c.52-.77,1-1.55,1.54-2.32l2.18-3.32a2.14,2.14,0,0,1,1.71-1,1.81,1.81,0,0,1,1.7.94A1.92,1.92,0,0,1,79,71.17c-.66,1-1.34,2.07-2,3.1l-1.75,2.66a.89.89,0,0,0-.09.89.8.8,0,0,0,.65.45.84.84,0,0,0,.81-.4l.85-1.29c.67-1,1.33-2,2-3a2,2,0,0,1,2.34-1A1.88,1.88,0,0,1,83,73.7a2.16,2.16,0,0,1,.13.7"/></g></g></svg>