<svg width="23" height="20" viewBox="0 0 23 20" fill="none" xmlns="http://www.w3.org/2000/svg">
<path d="M0.367626 8.67355L8.67374 0.367249C8.91084 0.130145 9.22685 0 9.56381 0C9.90114 0 10.217 0.130332 10.4541 0.367249L11.2082 1.12157C11.4451 1.3583 11.5756 1.6745 11.5756 2.01164C11.5756 2.3486 11.4451 2.67546 11.2082 2.91219L6.36254 7.76852H21.7574C22.4516 7.76852 23 8.31191 23 9.00621V10.0726C23 10.7669 22.4516 11.3651 21.7574 11.3651H6.30756L11.208 16.2485C11.4449 16.4856 11.5755 16.7932 11.5755 17.1304C11.5755 17.4671 11.4449 17.7792 11.208 18.0162L10.4539 18.768C10.2168 19.0051 9.90095 19.1344 9.56362 19.1344C9.22667 19.1344 8.91065 19.0035 8.67355 18.7664L0.367439 10.4602C0.129774 10.2224 -0.000931283 9.90488 3.66845e-06 9.56736C-0.000744293 9.22872 0.129774 8.91103 0.367626 8.67355Z" fill="#5AAAD9"/>
</svg>
