<svg width="23" height="20" viewBox="0 0 23 20" fill="none" xmlns="http://www.w3.org/2000/svg">
<g clip-path="url(#clip0)">
<path d="M22.6324 8.67355L14.3263 0.367249C14.0892 0.130145 13.7731 0 13.4362 0C13.0989 0 12.783 0.130332 12.5459 0.367249L11.7918 1.12157C11.5549 1.3583 11.4244 1.6745 11.4244 2.01164C11.4244 2.3486 11.5549 2.67546 11.7918 2.91219L16.6375 7.76851H1.24255C0.548442 7.76851 0 8.31191 0 9.0062V10.0726C0 10.7669 0.548442 11.3651 1.24255 11.3651H16.6924L11.792 16.2485C11.5551 16.4856 11.4245 16.7932 11.4245 17.1304C11.4245 17.4671 11.5551 17.7792 11.792 18.0161L12.5461 18.768C12.7832 19.0051 13.099 19.1343 13.4364 19.1343C13.7733 19.1343 14.0893 19.0035 14.3264 18.7663L22.6326 10.4602C22.8702 10.2224 23.0009 9.90488 23 9.56736C23.0007 9.22872 22.8702 8.91102 22.6324 8.67355Z" fill="#3C5AA9"/>
</g>
<defs>
<clipPath id="clip0">
<rect width="23" height="20" fill="white"/>
</clipPath>
</defs>
</svg>
